0
SECTION
2
HEADER
9
$INSUNITS
70
4
9
$ACADVER
1
AC1014
9
$HANDSEED
5
FFFF
0
ENDSEC
0
SECTION
2
TABLES
0
TABLE
2
VPORT
5
8
100
AcDbSymbolTable
0
ENDTAB
0
TABLE
2
LTYPE
5
5
100
AcDbSymbolTable
0
LTYPE
5
14
100
AcDbSymbolTableRecord
100
AcDbLinetypeTableRecord
2
BYBLOCK
70
0
0
LTYPE
5
15
100
AcDbSymbolTableRecord
100
AcDbLinetypeTableRecord
2
BYLAYER
70
0
0
LTYPE
5
16
100
AcDbSymbolTableRecord
100
AcDbLinetypeTableRecord
2
DASHED
70
0
3
Dashed __ __ __ __ __ __ __ __ __ __ __ __ __ _
72
65
73
2
40
0.75
49
0.5
74
0
49
-0.25
74
0
0
ENDTAB
0
TABLE
2
LAYER
5
2
100
AcDbSymbolTable
70
3
0
LAYER
5
50
100
AcDbSymbolTableRecord
100
AcDbLayerTableRecord
2
1
70
0
62
7
6
DASHED
0
LAYER
5
51
100
AcDbSymbolTableRecord
100
AcDbLayerTableRecord
2
0
70
0
62
7
6
CONTINUOUS
0
ENDTAB
0
TABLE
2
STYLE
5
3
100
AcDbSymbolTable
70
1
0
STYLE
5
11
100
AcDbSymbolTableRecord
100
AcDbTextStyleTableRecord
2
STANDARD
70
0
0
ENDTAB
0
TABLE
2
VIEW
5
6
100
AcDbSymbolTable
70
0
0
ENDTAB
0
TABLE
2
UCS
5
7
100
AcDbSymbolTable
70
0
0
ENDTAB
0
TABLE
2
APPID
5
9
100
AcDbSymbolTable
70
2
0
APPID
5
12
100
AcDbSymbolTableRecord
100
AcDbRegAppTableRecord
2
ACAD
70
0
0
ENDTAB
0
TABLE
2
DIMSTYLE
5
A
100
AcDbSymbolTable
70
1
0
ENDTAB
0
TABLE
2
BLOCK_RECORD
5
1
100
AcDbSymbolTable
70
1
0
BLOCK_RECORD
5
1F
100
AcDbSymbolTableRecord
100
AcDbBlockTableRecord
2
*MODEL_SPACE
0
BLOCK_RECORD
5
1B
100
AcDbSymbolTableRecord
100
AcDbBlockTableRecord
2
*PAPER_SPACE
0
ENDTAB
0
ENDSEC
0
SECTION
2
BLOCKS
0
BLOCK
5
20
100
AcDbEntity
100
AcDbBlockBegin
2
*MODEL_SPACE
0
ENDBLK
5
21
100
AcDbEntity
100
AcDbBlockEnd
0
BLOCK
5
1C
100
AcDbEntity
100
AcDbBlockBegin
2
*PAPER_SPACE
0
ENDBLK
5
1D
100
AcDbEntity
100
AcDbBlockEnd
0
ENDSEC
0
SECTION
2
ENTITIES
0
POINT
5
100
100
AcDbEntity
8
0
100
AcDbPoint
10
0
20
0
30
0
0
POINT
5
101
100
AcDbEntity
8
0
100
AcDbPoint
10
0
20
0
30
0
0
POINT
5
102
100
AcDbEntity
8
0
100
AcDbPoint
10
0
20
75
30
0
0
POINT
5
103
100
AcDbEntity
8
0
100
AcDbPoint
10
22
20
75
30
0
0
POINT
5
104
100
AcDbEntity
8
0
100
AcDbPoint
10
22
20
0
30
0
0
POINT
5
105
100
AcDbEntity
8
0
100
AcDbPoint
10
44
20
75
30
0
0
POINT
5
106
100
AcDbEntity
8
0
100
AcDbPoint
10
44
20
0
30
0
0
POINT
5
107
100
AcDbEntity
8
0
100
AcDbPoint
10
66
20
75
30
0
0
POINT
5
108
100
AcDbEntity
8
0
100
AcDbPoint
10
66
20
0
30
0
0
POINT
5
109
100
AcDbEntity
8
0
100
AcDbPoint
10
88
20
75
30
0
0
POINT
5
110
100
AcDbEntity
8
0
100
AcDbPoint
10
88
20
0
30
0
0
POINT
5
111
100
AcDbEntity
8
0
100
AcDbPoint
10
110
20
75
30
0
0
POINT
5
112
100
AcDbEntity
8
0
100
AcDbPoint
10
110
20
0
30
0
0
POINT
5
113
100
AcDbEntity
8
0
100
AcDbPoint
10
132
20
75
30
0
0
POINT
5
114
100
AcDbEntity
8
0
100
AcDbPoint
10
132
20
0
30
0
0
POINT
5
115
100
AcDbEntity
8
0
100
AcDbPoint
10
154.00000000000003
20
75
30
0
0
POINT
5
116
100
AcDbEntity
8
0
100
AcDbPoint
10
154.00000000000003
20
0
30
0
0
POINT
5
117
100
AcDbEntity
8
0
100
AcDbPoint
10
176
20
75
30
0
0
POINT
5
118
100
AcDbEntity
8
0
100
AcDbPoint
10
176
20
0
30
0
0
POINT
5
119
100
AcDbEntity
8
0
100
AcDbPoint
10
198
20
75
30
0
0
POINT
5
120
100
AcDbEntity
8
0
100
AcDbPoint
10
198
20
0
30
0
0
POINT
5
121
100
AcDbEntity
8
0
100
AcDbPoint
10
220
20
75
30
0
0
POINT
5
122
100
AcDbEntity
8
0
100
AcDbPoint
10
220
20
0
30
0
0
POINT
5
123
100
AcDbEntity
8
0
100
AcDbPoint
10
242.00000000000003
20
75
30
0
0
POINT
5
124
100
AcDbEntity
8
0
100
AcDbPoint
10
242.00000000000003
20
0
30
0
0
POINT
5
125
100
AcDbEntity
8
0
100
AcDbPoint
10
264
20
75
30
0
0
POINT
5
126
100
AcDbEntity
8
0
100
AcDbPoint
10
264
20
0
30
0
0
POINT
5
127
100
AcDbEntity
8
0
100
AcDbPoint
10
286
20
75
30
0
0
POINT
5
128
100
AcDbEntity
8
0
100
AcDbPoint
10
286
20
0
30
0
0
POINT
5
129
100
AcDbEntity
8
0
100
AcDbPoint
10
308.00000000000006
20
75
30
0
0
POINT
5
130
100
AcDbEntity
8
0
100
AcDbPoint
10
308.00000000000006
20
0
30
0
0
POINT
5
131
100
AcDbEntity
8
0
100
AcDbPoint
10
330
20
75
30
0
0
POINT
5
132
100
AcDbEntity
8
0
100
AcDbPoint
10
330
20
0
30
0
0
POINT
5
133
100
AcDbEntity
8
0
100
AcDbPoint
10
362
20
0
30
0
0
POINT
5
134
100
AcDbEntity
8
0
100
AcDbPoint
10
352
20
74.999999999999986
30
0
0
LINE
5
135
100
AcDbEntity
8
0
100
AcDbLine
10
1.5000000000000002
20
0
30
0
11
10
21
0
31
0
0
LINE
5
136
100
AcDbEntity
8
0
100
AcDbLine
10
10
20
53.500000000000007
30
0
11
10
21
71.5
31
0
0
LINE
5
137
100
AcDbEntity
8
0
100
AcDbLine
10
6.5000000000000018
20
75
30
0
11
3.5
21
75
31
0
0
LINE
5
138
100
AcDbEntity
8
0
100
AcDbLine
10
2.2204460492503131e-15
20
71.5
30
0
11
2.7755575615628914e-16
21
1.4999999999999944
31
0
0
LINE
5
139
100
AcDbEntity
8
0
100
AcDbLine
10
10
20
0
30
0
11
22
21
0
31
0
0
LINE
5
140
100
AcDbEntity
8
0
100
AcDbLine
10
18.5
20
50
30
0
11
13.499999999999998
21
50
31
0
0
ARC
5
141
100
AcDbEntity
8
0
100
AcDbCircle
10
3.4999999999999982
20
71.5
30
0
40
3.4999999999999964
210
0
220
-0
230
1
100
AcDbArc
50
89.999999999999972
51
180
0
ARC
5
142
100
AcDbEntity
8
0
100
AcDbCircle
10
6.5
20
71.5
30
0
40
3.5
210
0
220
0
230
1
100
AcDbArc
50
0
51
89.999999999999972
0
ARC
5
143
100
AcDbEntity
8
0
100
AcDbCircle
10
13.5
20
53.500000000000007
30
0
40
3.5000000000000009
210
0
220
0
230
1
100
AcDbArc
50
180
51
269.99999999999994
0
LINE
5
144
100
AcDbEntity
8
0
100
AcDbLine
10
40.500000000000007
20
50
30
0
11
35.5
21
50
31
0
0
ARC
5
145
100
AcDbEntity
8
0
100
AcDbCircle
10
25.5
20
71.5
30
0
40
3.4999999999999964
210
0
220
-0
230
1
100
AcDbArc
50
89.999999999999943
51
180
0
LINE
5
146
100
AcDbEntity
8
0
100
AcDbLine
10
32
20
0
30
0
11
44
21
0
31
0
0
LINE
5
147
100
AcDbEntity
8
0
100
AcDbLine
10
22
20
71.5
30
0
11
22
21
53.5
31
0
0
LINE
5
148
100
AcDbEntity
8
0
100
AcDbLine
10
32
20
53.500000000000007
30
0
11
32
21
71.5
31
0
0
ARC
5
149
100
AcDbEntity
8
0
100
AcDbCircle
10
28.5
20
71.5
30
0
40
3.5000000000000009
210
0
220
0
230
1
100
AcDbArc
50
0
51
89.999999999999901
0
ARC
5
150
100
AcDbEntity
8
0
100
AcDbCircle
10
35.5
20
53.500000000000007
30
0
40
3.5000000000000009
210
0
220
0
230
1
100
AcDbArc
50
180
51
270
0
LINE
5
151
100
AcDbEntity
8
0
100
AcDbLine
10
22
20
0
30
0
11
32
21
0
31
0
0
LINE
5
152
100
AcDbEntity
8
0
100
AcDbLine
10
28.500000000000007
20
75
30
0
11
25.500000000000004
21
75
31
0
0
LINE
5
153
100
AcDbEntity
8
0
100
AcDbLine
10
62.500000000000007
20
49.999999999999993
30
0
11
57.5
21
50
31
0
0
ARC
5
154
100
AcDbEntity
8
0
100
AcDbCircle
10
47.5
20
71.5
30
0
40
3.4999999999999964
210
0
220
-0
230
1
100
AcDbArc
50
90
51
180
0
LINE
5
155
100
AcDbEntity
8
0
100
AcDbLine
10
54
20
0
30
0
11
66
21
0
31
0
0
LINE
5
156
100
AcDbEntity
8
0
100
AcDbLine
10
44
20
71.5
30
0
11
44
21
53.5
31
0
0
LINE
5
157
100
AcDbEntity
8
0
100
AcDbLine
10
54
20
53.500000000000007
30
0
11
54
21
71.5
31
0
0
ARC
5
158
100
AcDbEntity
8
0
100
AcDbCircle
10
50.500000000000007
20
71.5
30
0
40
3.4999999999999964
210
0
220
0
230
1
100
AcDbArc
50
0
51
90
0
ARC
5
159
100
AcDbEntity
8
0
100
AcDbCircle
10
57.5
20
53.500000000000007
30
0
40
3.4999999999999964
210
0
220
0
230
1
100
AcDbArc
50
180
51
270
0
LINE
5
160
100
AcDbEntity
8
0
100
AcDbLine
10
44
20
0
30
0
11
54
21
0
31
0
0
LINE
5
161
100
AcDbEntity
8
0
100
AcDbLine
10
50.500000000000007
20
75
30
0
11
47.5
21
75
31
0
0
LINE
5
162
100
AcDbEntity
8
0
100
AcDbLine
10
84.500000000000014
20
50
30
0
11
79.5
21
50
31
0
0
ARC
5
163
100
AcDbEntity
8
0
100
AcDbCircle
10
69.5
20
71.5
30
0
40
3.4999999999999964
210
0
220
-0
230
1
100
AcDbArc
50
90
51
180
0
LINE
5
164
100
AcDbEntity
8
0
100
AcDbLine
10
76
20
0
30
0
11
88
21
0
31
0
0
LINE
5
165
100
AcDbEntity
8
0
100
AcDbLine
10
66
20
71.5
30
0
11
66
21
53.5
31
0
0
LINE
5
166
100
AcDbEntity
8
0
100
AcDbLine
10
76
20
53.500000000000007
30
0
11
76
21
71.5
31
0
0
ARC
5
167
100
AcDbEntity
8
0
100
AcDbCircle
10
72.500000000000014
20
71.5
30
0
40
3.4999999999999964
210
0
220
0
230
1
100
AcDbArc
50
0
51
90
0
ARC
5
168
100
AcDbEntity
8
0
100
AcDbCircle
10
79.500000000000014
20
53.500000000000007
30
0
40
3.5000000000000053
210
0
220
0
230
1
100
AcDbArc
50
180
51
269.99999999999972
0
LINE
5
169
100
AcDbEntity
8
0
100
AcDbLine
10
66
20
0
30
0
11
76
21
0
31
0
0
LINE
5
170
100
AcDbEntity
8
0
100
AcDbLine
10
72.500000000000014
20
75
30
0
11
69.5
21
75
31
0
0
LINE
5
171
100
AcDbEntity
8
0
100
AcDbLine
10
106.5
20
50
30
0
11
101.5
21
50
31
0
0
ARC
5
172
100
AcDbEntity
8
0
100
AcDbCircle
10
91.5
20
71.5
30
0
40
3.4999999999999964
210
0
220
-0
230
1
100
AcDbArc
50
90
51
180
0
LINE
5
173
100
AcDbEntity
8
0
100
AcDbLine
10
98
20
0
30
0
11
110
21
0
31
0
0
LINE
5
174
100
AcDbEntity
8
0
100
AcDbLine
10
88
20
71.5
30
0
11
88
21
53.5
31
0
0
LINE
5
175
100
AcDbEntity
8
0
100
AcDbLine
10
98
20
53.500000000000007
30
0
11
98
21
71.5
31
0
0
ARC
5
176
100
AcDbEntity
8
0
100
AcDbCircle
10
94.500000000000014
20
71.5
30
0
40
3.4999999999999964
210
0
220
0
230
1
100
AcDbArc
50
0
51
90
0
ARC
5
177
100
AcDbEntity
8
0
100
AcDbCircle
10
101.5
20
53.500000000000007
30
0
40
3.4999999999999964
210
0
220
0
230
1
100
AcDbArc
50
180
51
270
0
LINE
5
178
100
AcDbEntity
8
0
100
AcDbLine
10
88
20
0
30
0
11
98
21
0
31
0
0
LINE
5
179
100
AcDbEntity
8
0
100
AcDbLine
10
94.500000000000014
20
75
30
0
11
91.5
21
75
31
0
0
LINE
5
180
100
AcDbEntity
8
0
100
AcDbLine
10
128.5
20
49.999999999999993
30
0
11
123.5
21
50
31
0
0
ARC
5
181
100
AcDbEntity
8
0
100
AcDbCircle
10
113.5
20
71.5
30
0
40
3.4999999999999964
210
0
220
-0
230
1
100
AcDbArc
50
90
51
180
0
LINE
5
182
100
AcDbEntity
8
0
100
AcDbLine
10
120
20
0
30
0
11
132
21
0
31
0
0
LINE
5
183
100
AcDbEntity
8
0
100
AcDbLine
10
110
20
71.5
30
0
11
110
21
53.5
31
0
0
LINE
5
184
100
AcDbEntity
8
0
100
AcDbLine
10
120
20
53.500000000000007
30
0
11
120
21
71.5
31
0
0
ARC
5
185
100
AcDbEntity
8
0
100
AcDbCircle
10
116.5
20
71.5
30
0
40
3.4999999999999964
210
0
220
0
230
1
100
AcDbArc
50
0
51
90
0
ARC
5
186
100
AcDbEntity
8
0
100
AcDbCircle
10
123.5
20
53.500000000000007
30
0
40
3.4999999999999964
210
0
220
0
230
1
100
AcDbArc
50
180
51
270
0
LINE
5
187
100
AcDbEntity
8
0
100
AcDbLine
10
110
20
0
30
0
11
120
21
0
31
0
0
LINE
5
188
100
AcDbEntity
8
0
100
AcDbLine
10
116.5
20
75
30
0
11
113.5
21
75
31
0
0
LINE
5
189
100
AcDbEntity
8
0
100
AcDbLine
10
150.50000000000003
20
50
30
0
11
145.5
21
50
31
0
0
ARC
5
190
100
AcDbEntity
8
0
100
AcDbCircle
10
135.5
20
71.5
30
0
40
3.4999999999999964
210
0
220
-0
230
1
100
AcDbArc
50
90
51
180
0
LINE
5
191
100
AcDbEntity
8
0
100
AcDbLine
10
142
20
0
30
0
11
154.00000000000003
21
0
31
0
0
LINE
5
192
100
AcDbEntity
8
0
100
AcDbLine
10
132
20
71.5
30
0
11
132
21
53.5
31
0
0
LINE
5
193
100
AcDbEntity
8
0
100
AcDbLine
10
142
20
53.500000000000007
30
0
11
142
21
71.5
31
0
0
ARC
5
194
100
AcDbEntity
8
0
100
AcDbCircle
10
138.5
20
71.5
30
0
40
3.4999999999999964
210
0
220
0
230
1
100
AcDbArc
50
0
51
90
0
ARC
5
195
100
AcDbEntity
8
0
100
AcDbCircle
10
145.5
20
53.500000000000007
30
0
40
3.4999999999999964
210
0
220
0
230
1
100
AcDbArc
50
180
51
270
0
LINE
5
196
100
AcDbEntity
8
0
100
AcDbLine
10
132
20
0
30
0
11
142
21
0
31
0
0
LINE
5
197
100
AcDbEntity
8
0
100
AcDbLine
10
138.5
20
75
30
0
11
135.5
21
75
31
0
0
LINE
5
198
100
AcDbEntity
8
0
100
AcDbLine
10
172.5
20
50.000000000000007
30
0
11
167.50000000000003
21
50
31
0
0
ARC
5
199
100
AcDbEntity
8
0
100
AcDbCircle
10
157.50000000000003
20
71.5
30
0
40
3.4999999999999964
210
0
220
-0
230
1
100
AcDbArc
50
90
51
180
0
LINE
5
200
100
AcDbEntity
8
0
100
AcDbLine
10
164.00000000000003
20
0
30
0
11
176
21
0
31
0
0
LINE
5
201
100
AcDbEntity
8
0
100
AcDbLine
10
154.00000000000003
20
71.5
30
0
11
154.00000000000003
21
53.5
31
0
0
LINE
5
202
100
AcDbEntity
8
0
100
AcDbLine
10
164.00000000000003
20
53.500000000000007
30
0
11
164.00000000000003
21
71.5
31
0
0
ARC
5
203
100
AcDbEntity
8
0
100
AcDbCircle
10
160.5
20
71.5
30
0
40
3.5000000000000142
210
0
220
0
230
1
100
AcDbArc
50
0
51
90
0
ARC
5
204
100
AcDbEntity
8
0
100
AcDbCircle
10
167.50000000000003
20
53.500000000000007
30
0
40
3.5000000000000142
210
0
220
0
230
1
100
AcDbArc
50
180
51
270
0
LINE
5
205
100
AcDbEntity
8
0
100
AcDbLine
10
154.00000000000003
20
0
30
0
11
164.00000000000003
21
0
31
0
0
LINE
5
206
100
AcDbEntity
8
0
100
AcDbLine
10
160.5
20
75
30
0
11
157.50000000000003
21
75
31
0
0
LINE
5
207
100
AcDbEntity
8
0
100
AcDbLine
10
194.5
20
50.000000000000007
30
0
11
189.50000000000003
21
50
31
0
0
ARC
5
208
100
AcDbEntity
8
0
100
AcDbCircle
10
179.50000000000003
20
71.5
30
0
40
3.4999999999999964
210
0
220
-0
230
1
100
AcDbArc
50
90
51
180
0
LINE
5
209
100
AcDbEntity
8
0
100
AcDbLine
10
186
20
0
30
0
11
198
21
0
31
0
0
LINE
5
210
100
AcDbEntity
8
0
100
AcDbLine
10
176
20
71.5
30
0
11
176
21
53.5
31
0
0
LINE
5
211
100
AcDbEntity
8
0
100
AcDbLine
10
186
20
53.500000000000007
30
0
11
186
21
71.5
31
0
0
ARC
5
212
100
AcDbEntity
8
0
100
AcDbCircle
10
182.5
20
71.5
30
0
40
3.5000000000000142
210
0
220
0
230
1
100
AcDbArc
50
0
51
90
0
ARC
5
213
100
AcDbEntity
8
0
100
AcDbCircle
10
189.50000000000003
20
53.500000000000007
30
0
40
3.5000000000000142
210
0
220
0
230
1
100
AcDbArc
50
180
51
270
0
LINE
5
214
100
AcDbEntity
8
0
100
AcDbLine
10
176
20
0
30
0
11
186
21
0
31
0
0
LINE
5
215
100
AcDbEntity
8
0
100
AcDbLine
10
182.5
20
75
30
0
11
179.50000000000003
21
75
31
0
0
LINE
5
216
100
AcDbEntity
8
0
100
AcDbLine
10
216.5
20
50.000000000000007
30
0
11
211.50000000000003
21
50
31
0
0
ARC
5
217
100
AcDbEntity
8
0
100
AcDbCircle
10
201.50000000000003
20
71.5
30
0
40
3.4999999999999964
210
0
220
-0
230
1
100
AcDbArc
50
90
51
180
0
LINE
5
218
100
AcDbEntity
8
0
100
AcDbLine
10
208
20
0
30
0
11
220
21
0
31
0
0
LINE
5
219
100
AcDbEntity
8
0
100
AcDbLine
10
198
20
71.5
30
0
11
198
21
53.5
31
0
0
LINE
5
220
100
AcDbEntity
8
0
100
AcDbLine
10
208
20
53.500000000000007
30
0
11
208
21
71.5
31
0
0
ARC
5
221
100
AcDbEntity
8
0
100
AcDbCircle
10
204.5
20
71.5
30
0
40
3.5000000000000142
210
0
220
0
230
1
100
AcDbArc
50
0
51
90
0
ARC
5
222
100
AcDbEntity
8
0
100
AcDbCircle
10
211.50000000000003
20
53.500000000000007
30
0
40
3.5000000000000142
210
0
220
0
230
1
100
AcDbArc
50
180
51
270
0
LINE
5
223
100
AcDbEntity
8
0
100
AcDbLine
10
198
20
0
30
0
11
208
21
0
31
0
0
LINE
5
224
100
AcDbEntity
8
0
100
AcDbLine
10
204.5
20
75
30
0
11
201.50000000000003
21
75
31
0
0
LINE
5
225
100
AcDbEntity
8
0
100
AcDbLine
10
238.5
20
50.000000000000007
30
0
11
233.5
21
50
31
0
0
ARC
5
226
100
AcDbEntity
8
0
100
AcDbCircle
10
223.5
20
71.5
30
0
40
3.4999999999999964
210
0
220
-0
230
1
100
AcDbArc
50
90
51
180
0
LINE
5
227
100
AcDbEntity
8
0
100
AcDbLine
10
230
20
0
30
0
11
242
21
0
31
0
0
LINE
5
228
100
AcDbEntity
8
0
100
AcDbLine
10
220
20
71.5
30
0
11
220
21
53.5
31
0
0
LINE
5
229
100
AcDbEntity
8
0
100
AcDbLine
10
230
20
53.500000000000007
30
0
11
230
21
71.5
31
0
0
ARC
5
230
100
AcDbEntity
8
0
100
AcDbCircle
10
226.5
20
71.5
30
0
40
3.5000000000000142
210
0
220
0
230
1
100
AcDbArc
50
0
51
90
0
ARC
5
231
100
AcDbEntity
8
0
100
AcDbCircle
10
233.5
20
53.500000000000007
30
0
40
3.5000000000000142
210
0
220
0
230
1
100
AcDbArc
50
180
51
270
0
LINE
5
232
100
AcDbEntity
8
0
100
AcDbLine
10
220
20
0
30
0
11
230
21
0
31
0
0
LINE
5
233
100
AcDbEntity
8
0
100
AcDbLine
10
226.5
20
75
30
0
11
223.5
21
75
31
0
0
LINE
5
234
100
AcDbEntity
8
0
100
AcDbLine
10
260.5
20
50.000000000000007
30
0
11
255.50000000000006
21
50
31
0
0
ARC
5
235
100
AcDbEntity
8
0
100
AcDbCircle
10
245.50000000000006
20
71.5
30
0
40
3.4999999999999964
210
0
220
-0
230
1
100
AcDbArc
50
90
51
180
0
LINE
5
236
100
AcDbEntity
8
0
100
AcDbLine
10
252.00000000000003
20
0
30
0
11
264
21
0
31
0
0
LINE
5
237
100
AcDbEntity
8
0
100
AcDbLine
10
242.00000000000003
20
71.5
30
0
11
242.00000000000003
21
53.5
31
0
0
LINE
5
238
100
AcDbEntity
8
0
100
AcDbLine
10
252.00000000000003
20
53.500000000000007
30
0
11
252.00000000000003
21
71.5
31
0
0
ARC
5
239
100
AcDbEntity
8
0
100
AcDbCircle
10
248.5
20
71.5
30
0
40
3.5000000000000142
210
0
220
0
230
1
100
AcDbArc
50
0
51
90
0
ARC
5
240
100
AcDbEntity
8
0
100
AcDbCircle
10
255.50000000000006
20
53.500000000000007
30
0
40
3.5000000000000142
210
0
220
0
230
1
100
AcDbArc
50
180
51
270
0
LINE
5
241
100
AcDbEntity
8
0
100
AcDbLine
10
242.00000000000003
20
0
30
0
11
252.00000000000003
21
0
31
0
0
LINE
5
242
100
AcDbEntity
8
0
100
AcDbLine
10
248.5
20
75
30
0
11
245.50000000000006
21
75
31
0
0
LINE
5
243
100
AcDbEntity
8
0
100
AcDbLine
10
282.5
20
50.000000000000007
30
0
11
277.50000000000006
21
50
31
0
0
ARC
5
244
100
AcDbEntity
8
0
100
AcDbCircle
10
267.50000000000006
20
71.5
30
0
40
3.4999999999999964
210
0
220
-0
230
1
100
AcDbArc
50
90
51
180
0
LINE
5
245
100
AcDbEntity
8
0
100
AcDbLine
10
274
20
0
30
0
11
286
21
0
31
0
0
LINE
5
246
100
AcDbEntity
8
0
100
AcDbLine
10
264
20
71.5
30
0
11
264
21
53.5
31
0
0
LINE
5
247
100
AcDbEntity
8
0
100
AcDbLine
10
274
20
53.500000000000007
30
0
11
274
21
71.5
31
0
0
ARC
5
248
100
AcDbEntity
8
0
100
AcDbCircle
10
270.5
20
71.5
30
0
40
3.5000000000000142
210
0
220
0
230
1
100
AcDbArc
50
0
51
90
0
ARC
5
249
100
AcDbEntity
8
0
100
AcDbCircle
10
277.50000000000006
20
53.500000000000007
30
0
40
3.5000000000000142
210
0
220
0
230
1
100
AcDbArc
50
180
51
270
0
LINE
5
250
100
AcDbEntity
8
0
100
AcDbLine
10
264
20
0
30
0
11
274
21
0
31
0
0
LINE
5
251
100
AcDbEntity
8
0
100
AcDbLine
10
270.5
20
75
30
0
11
267.50000000000006
21
75
31
0
0
LINE
5
252
100
AcDbEntity
8
0
100
AcDbLine
10
304.5
20
50.000000000000007
30
0
11
299.5
21
50
31
0
0
ARC
5
253
100
AcDbEntity
8
0
100
AcDbCircle
10
289.5
20
71.5
30
0
40
3.4999999999999964
210
0
220
-0
230
1
100
AcDbArc
50
90
51
180
0
LINE
5
254
100
AcDbEntity
8
0
100
AcDbLine
10
296
20
0
30
0
11
308
21
0
31
0
0
LINE
5
255
100
AcDbEntity
8
0
100
AcDbLine
10
286
20
71.5
30
0
11
286
21
53.5
31
0
0
LINE
5
256
100
AcDbEntity
8
0
100
AcDbLine
10
296
20
53.500000000000007
30
0
11
296
21
71.5
31
0
0
ARC
5
257
100
AcDbEntity
8
0
100
AcDbCircle
10
292.5
20
71.5
30
0
40
3.5000000000000142
210
0
220
0
230
1
100
AcDbArc
50
0
51
90
0
ARC
5
258
100
AcDbEntity
8
0
100
AcDbCircle
10
299.5
20
53.500000000000007
30
0
40
3.5000000000000142
210
0
220
0
230
1
100
AcDbArc
50
180
51
270
0
LINE
5
259
100
AcDbEntity
8
0
100
AcDbLine
10
286
20
0
30
0
11
296
21
0
31
0
0
LINE
5
260
100
AcDbEntity
8
0
100
AcDbLine
10
292.5
20
75
30
0
11
289.5
21
75
31
0
0
LINE
5
261
100
AcDbEntity
8
0
100
AcDbLine
10
326.5
20
49.999999999999964
30
0
11
321.50000000000006
21
50
31
0
0
ARC
5
262
100
AcDbEntity
8
0
100
AcDbCircle
10
311.50000000000006
20
71.5
30
0
40
3.4999999999999964
210
0
220
-0
230
1
100
AcDbArc
50
90
51
180
0
LINE
5
263
100
AcDbEntity
8
0
100
AcDbLine
10
318.00000000000006
20
0
30
0
11
330.00000000000006
21
0
31
0
0
LINE
5
264
100
AcDbEntity
8
0
100
AcDbLine
10
308.00000000000006
20
71.5
30
0
11
308.00000000000006
21
53.500000000000007
31
0
0
LINE
5
265
100
AcDbEntity
8
0
100
AcDbLine
10
318.00000000000006
20
53.500000000000007
30
0
11
318.00000000000006
21
71.5
31
0
0
ARC
5
266
100
AcDbEntity
8
0
100
AcDbCircle
10
314.5
20
71.5
30
0
40
3.5000000000000142
210
0
220
0
230
1
100
AcDbArc
50
0
51
90
0
ARC
5
267
100
AcDbEntity
8
0
100
AcDbCircle
10
321.50000000000006
20
53.500000000000007
30
0
40
3.5000000000000142
210
0
220
0
230
1
100
AcDbArc
50
180
51
270
0
LINE
5
268
100
AcDbEntity
8
0
100
AcDbLine
10
308.00000000000006
20
0
30
0
11
318.00000000000006
21
0
31
0
0
LINE
5
269
100
AcDbEntity
8
0
100
AcDbLine
10
314.5
20
75
30
0
11
311.50000000000006
21
75
31
0
0
LINE
5
270
100
AcDbEntity
8
0
100
AcDbLine
10
348.5
20
50.000000000000036
30
0
11
343.5
21
50
31
0
0
ARC
5
271
100
AcDbEntity
8
0
100
AcDbCircle
10
333.5
20
71.5
30
0
40
3.4999999999999964
210
0
220
-0
230
1
100
AcDbArc
50
90
51
180
0
LINE
5
272
100
AcDbEntity
8
0
100
AcDbLine
10
340
20
0
30
0
11
352
21
0
31
0
0
LINE
5
273
100
AcDbEntity
8
0
100
AcDbLine
10
330
20
71.5
30
0
11
330
21
53.499999999999957
31
0
0
LINE
5
274
100
AcDbEntity
8
0
100
AcDbLine
10
340
20
53.500000000000007
30
0
11
340
21
71.5
31
0
0
ARC
5
275
100
AcDbEntity
8
0
100
AcDbCircle
10
336.5
20
71.5
30
0
40
3.5000000000000142
210
0
220
0
230
1
100
AcDbArc
50
0
51
90
0
ARC
5
276
100
AcDbEntity
8
0
100
AcDbCircle
10
343.5
20
53.500000000000007
30
0
40
3.5000000000000142
210
0
220
0
230
1
100
AcDbArc
50
180
51
270
0
LINE
5
277
100
AcDbEntity
8
0
100
AcDbLine
10
330
20
0
30
0
11
340
21
0
31
0
0
LINE
5
278
100
AcDbEntity
8
0
100
AcDbLine
10
336.5
20
75
30
0
11
333.5
21
75
31
0
0
LINE
5
279
100
AcDbEntity
8
0
100
AcDbLine
10
352
20
0
30
0
11
360.50000000000006
21
0
31
0
0
LINE
5
280
100
AcDbEntity
8
0
100
AcDbLine
10
362
20
1.5000000000000002
30
0
11
362
21
71.5
31
0
0
LINE
5
281
100
AcDbEntity
8
0
100
AcDbLine
10
358.5
20
74.999999999999957
30
0
11
355.50000000000006
21
74.999999999999986
31
0
0
LINE
5
282
100
AcDbEntity
8
0
100
AcDbLine
10
352
20
71.5
30
0
11
352
21
53.5
31
0
0
ARC
5
283
100
AcDbEntity
8
0
100
AcDbCircle
10
355.50000000000006
20
71.499999999999943
30
0
40
3.5000000000000497
210
0
220
-0
230
1
100
AcDbArc
50
90
51
180
0
ARC
5
284
100
AcDbEntity
8
0
100
AcDbCircle
10
358.5
20
71.499999999999943
30
0
40
3.5000000000000142
210
0
220
-0
230
1
100
AcDbArc
50
0
51
90
0
ARC
5
285
100
AcDbEntity
8
0
100
AcDbCircle
10
18.500000000000007
20
53.5
30
0
40
3.4999999999999964
210
0
220
0
230
1
100
AcDbArc
50
-90.000000000000099
51
0
0
ARC
5
286
100
AcDbEntity
8
0
100
AcDbCircle
10
40.500000000000043
20
53.499999999999957
30
0
40
3.4999999999999609
210
0
220
0
230
1
100
AcDbArc
50
-90.000000000000611
51
0
0
ARC
5
287
100
AcDbEntity
8
0
100
AcDbCircle
10
62.500000000000028
20
53.499999999999972
30
0
40
3.4999999999999787
210
0
220
0
230
1
100
AcDbArc
50
-90.000000000000369
51
0
0
ARC
5
288
100
AcDbEntity
8
0
100
AcDbCircle
10
84.500000000000028
20
53.499999999999979
30
0
40
3.4999999999999787
210
0
220
0
230
1
100
AcDbArc
50
-90.000000000000256
51
0
0
ARC
5
289
100
AcDbEntity
8
0
100
AcDbCircle
10
106.50000000000003
20
53.499999999999979
30
0
40
3.4999999999999787
210
0
220
0
230
1
100
AcDbArc
50
-90.000000000000455
51
0
0
ARC
5
290
100
AcDbEntity
8
0
100
AcDbCircle
10
128.5
20
53.499999999999986
30
0
40
3.4999999999999964
210
0
220
0
230
1
100
AcDbArc
50
-90
51
0
0
ARC
5
291
100
AcDbEntity
8
0
100
AcDbCircle
10
150.50000000000006
20
53.499999999999979
30
0
40
3.4999999999999787
210
0
220
0
230
1
100
AcDbArc
50
-90.000000000000455
51
0
0
ARC
5
292
100
AcDbEntity
8
0
100
AcDbCircle
10
172.50000000000003
20
53.499999999999986
30
0
40
3.4999999999999787
210
0
220
0
230
1
100
AcDbArc
50
-90.000000000000455
51
0
0
ARC
5
293
100
AcDbEntity
8
0
100
AcDbCircle
10
194.5
20
53.500000000000021
30
0
40
3.5000000000000142
210
-0
220
0
230
1
100
AcDbArc
50
270
51
360
0
ARC
5
294
100
AcDbEntity
8
0
100
AcDbCircle
10
216.50000000000003
20
53.499999999999986
30
0
40
3.4999999999999787
210
0
220
0
230
1
100
AcDbArc
50
-90.000000000000455
51
0
0
ARC
5
295
100
AcDbEntity
8
0
100
AcDbCircle
10
238.50000000000006
20
53.499999999999986
30
0
40
3.4999999999999787
210
0
220
0
230
1
100
AcDbArc
50
-90.000000000000924
51
0
0
ARC
5
296
100
AcDbEntity
8
0
100
AcDbCircle
10
260.5
20
53.500000000000021
30
0
40
3.5000000000000142
210
-0
220
0
230
1
100
AcDbArc
50
270
51
360
0
ARC
5
297
100
AcDbEntity
8
0
100
AcDbCircle
10
282.50000000000006
20
53.499999999999986
30
0
40
3.4999999999999787
210
0
220
0
230
1
100
AcDbArc
50
-90.000000000000924
51
0
0
ARC
5
298
100
AcDbEntity
8
0
100
AcDbCircle
10
304.5
20
53.500000000000007
30
0
40
3.4999999999999964
210
0
220
0
230
1
100
AcDbArc
50
-90
51
0
0
ARC
5
299
100
AcDbEntity
8
0
100
AcDbCircle
10
326.5
20
53.499999999999957
30
0
40
3.4999999999999964
210
-0
220
0
230
1
100
AcDbArc
50
-90
51
0
0
ARC
5
300
100
AcDbEntity
8
0
100
AcDbCircle
10
348.5
20
53.50000000000005
30
0
40
3.5000000000000142
210
-0
220
0
230
1
100
AcDbArc
50
270
51
360
0
ARC
5
301
100
AcDbEntity
8
0
100
AcDbCircle
10
1.5000000000000002
20
1.5
30
0
40
1.5
210
0
220
0
230
1
100
AcDbArc
50
180
51
270
0
ARC
5
302
100
AcDbEntity
8
0
100
AcDbCircle
10
360.50000000000006
20
1.500000000000018
30
0
40
1.500000000000018
210
0
220
0
230
1
100
AcDbArc
50
270
51
360
0
ENDSEC
0
SECTION
2
OBJECTS
0
DICTIONARY
5
C
100
AcDbDictionary
3
ACAD_GROUP
350
D
3
ACAD_MLINESTYLE
350
17
0
DICTIONARY
5
D
100
AcDbDictionary
0
DICTIONARY
5
1A
330
C
100
AcDbDictionary
0
DICTIONARY
5
17
100
AcDbDictionary
0
ENDSEC
0
EOF
